<mxfile host="Electron" modified="2023-08-15T00:20:57.412Z" agent="Mozilla/5.0 (Macintosh; Intel Mac OS X 10_15_7) AppleWebKit/537.36 (KHTML, like Gecko) draw.io/21.6.8 Chrome/114.0.5735.289 Electron/25.5.0 Safari/537.36" etag="oHo0eGrOoFutF2J0ZjxC" version="21.6.8" type="device">
  <diagram name="整体架构" id="mHGVXTgtIIiQmIForAZB">
    <mxGraphModel dx="1194" dy="849" grid="1" gridSize="10" guides="1" tooltips="1" connect="1" arrows="1" fold="1" page="1" pageScale="1" pageWidth="2339" pageHeight="3300" math="0" shadow="0">
      <root>
        <mxCell id="0" />
        <mxCell id="1" parent="0" />
        <mxCell id="QcZgO8PTCjcs4cgp5Dko-14" value="" style="whiteSpace=wrap;html=1;" vertex="1" parent="1">
          <mxGeometry x="111.25" y="655" width="877.5" height="170" as="geometry" />
        </mxCell>
        <mxCell id="QcZgO8PTCjcs4cgp5Dko-15" style="edgeStyle=orthogonalEdgeStyle;rounded=0;orthogonalLoop=1;jettySize=auto;html=1;" edge="1" parent="1" source="QcZgO8PTCjcs4cgp5Dko-1" target="QcZgO8PTCjcs4cgp5Dko-14">
          <mxGeometry relative="1" as="geometry" />
        </mxCell>
        <mxCell id="QcZgO8PTCjcs4cgp5Dko-16" value="Lz4数据压缩" style="edgeLabel;html=1;align=center;verticalAlign=middle;resizable=0;points=[];" vertex="1" connectable="0" parent="QcZgO8PTCjcs4cgp5Dko-15">
          <mxGeometry x="-0.4235" y="-1" relative="1" as="geometry">
            <mxPoint as="offset" />
          </mxGeometry>
        </mxCell>
        <mxCell id="QcZgO8PTCjcs4cgp5Dko-1" value="" style="whiteSpace=wrap;html=1;" vertex="1" parent="1">
          <mxGeometry x="300" y="190" width="500" height="420" as="geometry" />
        </mxCell>
        <mxCell id="QcZgO8PTCjcs4cgp5Dko-2" value="DDL" style="whiteSpace=wrap;html=1;" vertex="1" parent="1">
          <mxGeometry x="370" y="300" width="100" height="60" as="geometry" />
        </mxCell>
        <mxCell id="QcZgO8PTCjcs4cgp5Dko-3" value="DML" style="whiteSpace=wrap;html=1;" vertex="1" parent="1">
          <mxGeometry x="500" y="300" width="100" height="60" as="geometry" />
        </mxCell>
        <mxCell id="QcZgO8PTCjcs4cgp5Dko-4" value="关系型模型" style="whiteSpace=wrap;html=1;" vertex="1" parent="1">
          <mxGeometry x="630" y="300" width="100" height="60" as="geometry" />
        </mxCell>
        <mxCell id="QcZgO8PTCjcs4cgp5Dko-5" value="权限控制" style="whiteSpace=wrap;html=1;" vertex="1" parent="1">
          <mxGeometry x="370" y="410" width="100" height="60" as="geometry" />
        </mxCell>
        <mxCell id="QcZgO8PTCjcs4cgp5Dko-6" value="备份恢复" style="whiteSpace=wrap;html=1;" vertex="1" parent="1">
          <mxGeometry x="500" y="410" width="100" height="60" as="geometry" />
        </mxCell>
        <mxCell id="QcZgO8PTCjcs4cgp5Dko-7" value="SQL语法" style="whiteSpace=wrap;html=1;" vertex="1" parent="1">
          <mxGeometry x="630" y="410" width="100" height="60" as="geometry" />
        </mxCell>
        <mxCell id="QcZgO8PTCjcs4cgp5Dko-8" value="存储引擎" style="whiteSpace=wrap;html=1;" vertex="1" parent="1">
          <mxGeometry x="370" y="510" width="360" height="40" as="geometry" />
        </mxCell>
        <mxCell id="QcZgO8PTCjcs4cgp5Dko-9" value="ClickHouse&lt;br&gt;(OLAP数据库系统)" style="text;html=1;align=center;verticalAlign=middle;resizable=0;points=[];autosize=1;strokeColor=none;fillColor=none;" vertex="1" parent="1">
          <mxGeometry x="490" y="200" width="120" height="40" as="geometry" />
        </mxCell>
        <mxCell id="QcZgO8PTCjcs4cgp5Dko-10" value="列式存储&lt;br&gt;列数据 -&amp;gt; 单独存储" style="whiteSpace=wrap;html=1;" vertex="1" parent="1">
          <mxGeometry x="190" y="710" width="120" height="60" as="geometry" />
        </mxCell>
        <mxCell id="QcZgO8PTCjcs4cgp5Dko-11" value="列式存储&lt;br&gt;列数据 -&amp;gt; 单独存储" style="whiteSpace=wrap;html=1;" vertex="1" parent="1">
          <mxGeometry x="400" y="710" width="120" height="60" as="geometry" />
        </mxCell>
        <mxCell id="QcZgO8PTCjcs4cgp5Dko-12" value="列式存储&lt;br&gt;列数据 -&amp;gt; 单独存储" style="whiteSpace=wrap;html=1;" vertex="1" parent="1">
          <mxGeometry x="610" y="710" width="120" height="60" as="geometry" />
        </mxCell>
        <mxCell id="QcZgO8PTCjcs4cgp5Dko-13" value="列式存储&lt;br&gt;列数据 -&amp;gt; 单独存储" style="whiteSpace=wrap;html=1;" vertex="1" parent="1">
          <mxGeometry x="820" y="710" width="120" height="60" as="geometry" />
        </mxCell>
      </root>
    </mxGraphModel>
  </diagram>
</mxfile>
